HIERARCHY
ROOT Hips
{
	OFFSET 54.982300 -17.185614 86.272400
	CHANNELS 6 Xposition Yposition Zposition Xrotation Yrotation Zrotation
	JOINT spine
	{
		OFFSET 0.000000 -0.393702 6.846367
		CHANNELS 3 Xrotation Yrotation Zrotation
		JOINT spine1
		{
			OFFSET 0.000000 -0.000002 9.496208
			CHANNELS 3 Xrotation Yrotation Zrotation
			JOINT spine2
			{
				OFFSET 0.000000 -0.000002 9.099091
				CHANNELS 3 Xrotation Yrotation Zrotation
				JOINT Neck
				{
					OFFSET 0.000000 -1.113785 23.361206
					CHANNELS 3 Xrotation Yrotation Zrotation
					JOINT Head
					{
						OFFSET 0.000000 0.000000 7.058014
						CHANNELS 3 Xrotation Yrotation Zrotation
						End Site
						{
							OFFSET 0.000000 5.634187 17.084396
						}
					}
				}
				JOINT RightShoulder
				{
					OFFSET -3.831360 0.533491 9.826309
					CHANNELS 3 Xrotation Yrotation Zrotation
					JOINT RightArm
					{
						OFFSET 0.000000 -0.000002 12.888092
						CHANNELS 3 Xrotation Yrotation Zrotation
						JOINT RightArmRoll
						{
							OFFSET 0.000000 -0.000002 6.506165
							CHANNELS 3 Xrotation Yrotation Zrotation
							JOINT RightForeArm
							{
								OFFSET 0.000000 -0.000004 18.950104
								CHANNELS 3 Xrotation Yrotation Zrotation
								JOINT RightForeArmRoll
								{
									OFFSET 0.000000 0.000000 7.300934
									CHANNELS 3 Xrotation Yrotation Zrotation
									JOINT RightHand
									{
										OFFSET 0.000000 -0.000004 14.651398
										CHANNELS 3 Xrotation Yrotation Zrotation
										End Site
										{
											OFFSET 0.000000 0.000000 0.100006
										}
									}
								}
							}
						}
					}
				}
				JOINT LeftShoulder
				{
					OFFSET 3.831360 0.533491 9.826309
					CHANNELS 3 Xrotation Yrotation Zrotation
					JOINT LeftArm
					{
						OFFSET 0.000000 -0.000002 12.888092
						CHANNELS 3 Xrotation Yrotation Zrotation
						JOINT LeftArmRoll
						{
							OFFSET 0.000000 -0.000002 6.506165
							CHANNELS 3 Xrotation Yrotation Zrotation
							JOINT LeftForeArm
							{
								OFFSET 0.000000 -0.000004 18.950104
								CHANNELS 3 Xrotation Yrotation Zrotation
								JOINT LeftForeArmRoll
								{
									OFFSET 0.000000 0.000000 7.300919
									CHANNELS 3 Xrotation Yrotation Zrotation
									JOINT LeftHand
									{
										OFFSET 0.000000 -0.000004 14.651398
										CHANNELS 3 Xrotation Yrotation Zrotation
										End Site
										{
											OFFSET 0.000000 0.000000 0.100006
										}
									}
								}
							}
						}
					}
				}
			}
		}
	}
	JOINT RightUpLeg
	{
		OFFSET -6.068371 0.933477 -1.112778
		CHANNELS 3 Xrotation Yrotation Zrotation
		JOINT RightUpLegRoll
		{
			OFFSET 0.000000 -0.000004 17.179596
			CHANNELS 3 Xrotation Yrotation Zrotation
			JOINT RightLeg
			{
				OFFSET 0.000000 0.000004 -21.274300
				CHANNELS 3 Xrotation Yrotation Zrotation
				JOINT RightLegRoll
				{
					OFFSET 0.000000 -0.000004 21.343903
					CHANNELS 3 Xrotation Yrotation Zrotation
					JOINT RightFoot
					{
						OFFSET 0.000000 -0.000002 17.765198
						CHANNELS 3 Xrotation Yrotation Zrotation
						JOINT RightToeBase
						{
							OFFSET 0.000000 -0.000004 14.850792
							CHANNELS 3 Xrotation Yrotation Zrotation
							End Site
							{
								OFFSET 0.006294 0.829004 7.192139
							}
						}
					}
				}
			}
		}
	}
	JOINT LeftUpLeg
	{
		OFFSET 6.068371 0.933477 -1.112778
		CHANNELS 3 Xrotation Yrotation Zrotation
		JOINT LeftUpLegRoll
		{
			OFFSET 0.000000 -0.000004 17.179703
			CHANNELS 3 Xrotation Yrotation Zrotation
			JOINT LeftLeg
			{
				OFFSET 0.000000 -0.000004 21.274200
				CHANNELS 3 Xrotation Yrotation Zrotation
				JOINT LeftLegRoll
				{
					OFFSET 0.000000 -0.000002 21.541199
					CHANNELS 3 Xrotation Yrotation Zrotation
					JOINT LeftFoot
					{
						OFFSET 0.000000 -0.000004 17.567902
						CHANNELS 3 Xrotation Yrotation Zrotation
						JOINT LeftToeBase
						{
							OFFSET 0.000000 -0.000002 14.850800
							CHANNELS 3 Xrotation Yrotation Zrotation
							End Site
							{
								OFFSET -0.028210 0.829003 7.192139
							}
						}
					}
				}
			}
		}
	}
}
MOTION
Frames: 7
Frame Time: 0.041667
52.229797 -7.943941 86.582893 -2.595386 -1.184741 -2.841201 -1.523162 -1.226677 1.073295 0.979533 -2.463541 2.110927 2.624758 -2.438073 2.140274 10.396421 17.605221 -4.083395 9.318925 -11.729855 -3.872580 -13.001012 -50.944848 -15.014912 -59.979470 -108.358608 -30.167262 -0.000000 0.000000 -0.000006 5.759738 -10.397898 -0.135783 0.000000 0.000011 -3.006880 -5.000220 -7.998753 0.000151 -23.923897 71.618112 27.844873 -81.578741 113.479461 50.653356 -0.000001 -0.000004 0.000006 7.890065 11.765733 -1.235587 0.000004 -0.000015 3.007940 -5.000183 7.998735 -0.000176 -14.271105 -177.906593 -1.785044 -179.999991 0.000005 -1.138000 154.564982 -2.909366 -1.306784 0.000002 -0.000007 0.631714 73.230747 7.142196 1.079946 25.456962 -7.349034 0.000008 -10.550733 -179.808295 1.464625 -0.000003 -0.000004 -1.149341 -24.639644 1.469709 1.098538 -0.000001 -0.000002 -0.690085 75.967652 -6.509887 -2.759430 25.456950 7.355613 0.000000 
52.239494 -7.926105 86.576805 -2.593203 -1.185712 -2.836850 -1.524704 -1.226676 1.072772 0.976493 -2.465183 2.112455 2.621718 -2.439707 2.141829 10.359211 17.616953 -4.074161 9.320609 -11.730985 -3.869898 -12.995187 -50.936959 -15.007346 -60.031953 -108.430817 -30.257021 0.000001 -0.000001 -0.000005 5.771191 -10.409340 -0.133779 -0.000001 0.000012 -3.006879 -5.000219 -7.998753 0.000152 -23.924090 71.618953 27.845073 -81.560430 113.527033 50.670820 -0.000002 -0.000001 0.000009 7.913169 11.781051 -1.236723 0.000002 -0.000016 3.007940 -5.000187 7.998735 -0.000174 -14.272324 -177.904681 -1.783100 -179.999991 0.000005 -1.138000 154.561307 -2.911981 -1.306259 0.000001 -0.000007 0.631714 73.235153 7.142822 1.077758 25.456964 -7.349035 0.000008 -10.548144 -179.797490 1.480711 -0.000004 -0.000005 -1.149360 -24.637414 1.458417 1.097443 -0.000001 -0.000002 -0.691756 75.969722 -6.507639 -2.763632 25.456950 7.355614 -0.000000 
52.235992 -7.928982 86.579811 -2.591146 -1.186563 -2.832575 -1.526251 -1.226635 1.072169 0.973423 -2.466845 2.114001 2.618649 -2.441341 2.143393 10.321667 17.628402 -4.064807 9.322557 -11.731810 -3.867169 -12.989569 -50.929043 -15.000029 -60.084143 -108.503613 -30.346469 -0.000000 0.000001 -0.000004 5.782666 -10.420677 -0.131785 0.000000 0.000012 -3.006879 -5.000216 -7.998753 0.000150 -23.923608 71.619342 27.844533 -81.540731 113.574906 50.686916 -0.000001 -0.000003 0.000008 7.936616 11.796358 -1.237877 0.000002 -0.000014 3.007942 -5.000181 7.998734 -0.000179 -14.273331 -177.903697 -1.780956 -179.999991 0.000005 -1.138000 154.557564 -2.913705 -1.306300 0.000002 -0.000007 0.631714 73.239579 7.143506 1.075478 25.456964 -7.349034 0.000008 -10.545049 -179.786657 1.497227 -0.000003 -0.000005 -1.149370 -24.634979 1.446709 1.096314 -0.000001 -0.000002 -0.693484 75.971866 -6.505299 -2.768120 25.456950 7.355613 0.000000 
52.242897 -7.942671 86.574707 -2.589167 -1.187314 -2.828379 -1.527810 -1.226564 1.071518 0.970333 -2.468507 2.115556 2.615559 -2.442985 2.144966 10.283877 17.639662 -4.055363 9.324665 -11.732334 -3.864416 -12.984080 -50.921014 -14.992883 -60.136202 -108.576717 -30.435716 -0.000000 0.000001 -0.000001 5.794166 -10.432018 -0.129778 -0.000003 0.000011 -3.006878 -5.000219 -7.998753 0.000151 -23.922816 71.619547 27.843655 -81.520350 113.623147 50.702314 -0.000000 -0.000002 0.000009 7.960301 11.811653 -1.239041 0.000000 -0.000016 3.007940 -5.000183 7.998736 -0.000177 -14.274149 -177.901771 -1.779068 -179.999991 0.000005 -1.138000 154.553889 -2.916319 -1.306773 0.000001 -0.000007 0.631714 73.244135 7.144236 1.072993 25.456959 -7.349035 0.000008 -10.541757 -179.774868 1.513865 -0.000005 -0.000004 -1.149380 -24.632538 1.434719 1.095168 -0.000003 -0.000002 -0.695252 75.974161 -6.502836 -2.772683 25.456950 7.355614 -0.000000 
52.245495 -7.940144 86.574699 -2.587237 -1.188025 -2.824201 -1.529372 -1.226474 1.070837 0.967231 -2.470169 2.117111 2.612459 -2.444630 2.146538 10.245941 17.650727 -4.045847 9.326877 -11.732852 -3.861631 -12.978645 -50.912879 -14.985789 -60.187825 -108.650326 -30.524416 0.000000 -0.000001 -0.000006 5.805679 -10.443352 -0.127755 -0.000002 0.000012 -3.006877 -5.000218 -7.998753 0.000150 -23.921669 71.619485 27.842400 -81.499470 113.671621 50.717249 -0.000004 -0.000005 0.000004 7.984136 11.826946 -1.240222 0.000003 -0.000015 3.007939 -5.000184 7.998735 -0.000175 -14.274858 -177.900828 -1.776940 -179.999991 0.000005 -1.138000 154.550228 -2.918946 -1.306255 0.000001 -0.000007 0.631714 73.248690 7.144969 1.070611 25.456959 -7.349035 0.000007 -10.538266 -179.764063 1.530867 -0.000003 -0.000004 -1.149370 -24.630000 1.422556 1.094005 -0.000001 -0.000002 -0.697043 75.976449 -6.500343 -2.777444 25.456952 7.355613 -0.000000 
52.236797 -7.962261 86.575706 -2.585315 -1.188726 -2.820042 -1.530943 -1.226393 1.070145 0.964126 -2.471841 2.118675 2.609350 -2.446285 2.148120 10.207988 17.661884 -4.036333 9.329108 -11.733275 -3.858848 -12.973269 -50.904833 -14.978772 -60.239058 -108.723948 -30.612703 0.000001 -0.000001 -0.000003 5.817201 -10.454687 -0.125729 -0.000002 0.000012 -3.006879 -5.000218 -7.998754 0.000150 -23.920489 71.619424 27.841099 -81.478454 113.720116 50.732111 -0.000003 -0.000003 0.000009 8.008001 11.842226 -1.241413 0.000001 -0.000014 3.007943 -5.000186 7.998735 -0.000177 -14.275667 -177.899858 -1.774825 -179.999991 0.000005 -1.138000 154.546554 -2.921572 -1.306735 0.000003 -0.000007 0.631714 73.253171 7.145766 1.068044 25.456957 -7.349034 0.000008 -10.534775 -179.752247 1.547716 -0.000004 -0.000004 -1.149370 -24.627458 1.410357 1.092843 -0.000000 -0.000002 -0.698840 75.978840 -6.497810 -2.782094 25.456950 7.355614 -0.000000 
52.241493 -7.960575 86.575905 -2.583368 -1.189447 -2.815865 -1.532512 -1.226302 1.069474 0.961027 -2.473514 2.120229 2.606250 -2.447929 2.149703 10.170087 17.673038 -4.026812 9.331301 -11.733700 -3.856082 -12.967824 -50.896698 -14.971660 -60.289745 -108.797612 -30.700382 0.000002 0.000002 -0.000003 5.828705 -10.466022 -0.123706 -0.000001 0.000011 -3.006879 -5.000220 -7.998753 0.000152 -23.919464 71.619451 27.839959 -81.457758 113.768501 50.747196 -0.000000 -0.000003 0.000007 8.031798 11.857510 -1.242617 0.000003 -0.000016 3.007937 -5.000181 7.998735 -0.000178 -14.276385 -177.897919 -1.772946 -179.999991 0.000005 -1.138000 154.542879 -2.924186 -1.306198 0.000002 -0.000007 0.631714 73.257720 7.146494 1.065561 25.456960 -7.349033 0.000007 -10.531283 -179.741428 1.564671 -0.000004 -0.000004 -1.149371 -24.625024 1.398238 1.091690 -0.000001 -0.000002 -0.700626 75.981135 -6.495344 -2.786758 25.456948 7.355613 -0.000000 
